<svg width="538" height="393" viewBox="0 0 538 393" fill="none" xmlns="http://www.w3.org/2000/svg">
<g clip-path="url(#clip0)">
<path d="M106.183 4.00284C106.183 4.00284 104.313 11.0293 117.379 30.8907C130.445 50.752 129.538 53.5655 128.784 59.245C128.03 64.9244 128.075 68.034 120.483 75.0079C120.483 75.0079 97.7384 82.2016 94.6988 86.6869C91.6592 91.1722 99.7218 107.48 99.7218 107.48C99.7218 107.48 107.467 127.289 79.6545 134.888C79.6545 134.888 57.8913 134.917 51.8567 139.536C51.8567 139.536 54.1922 131.497 46.9329 119.675C39.6735 107.852 49.675 96.3262 49.675 96.3262C49.675 96.3262 57.7277 92.0559 62.84 91.7263C67.9523 91.3967 69.5737 89.1421 66.2862 83.4817C66.2862 83.4817 61.5309 81.0934 54.9459 86.2092C48.3609 91.325 43.442 94.9696 37.705 94.5397C31.9679 94.1098 23.7863 91.7788 18.4161 81.552C13.046 71.3251 10.2196 56.8662 6.19821 50.2648C2.17681 43.6635 0 42.2161 0 42.2161C0 42.2161 5.08254 45.9324 22.6309 33.3172C40.1793 20.7021 49.3378 26.0997 49.3378 26.0997C49.3378 26.0997 63.44 29.7491 65.7011 53.704C65.7011 53.704 69.8018 76.5317 78.1372 62.7033C78.1372 62.7033 75.3157 54.9173 69.6778 43.4533C64.0399 31.9893 79.1289 21.1988 90.1766 17.5877C101.224 13.9765 106.183 4.00284 106.183 4.00284Z" fill="#88C322"/>
<path d="M15.367 47.2746L15.3174 47.1552C18.7884 45.7604 34.7996 54.1148 47.6026 61.3706L47.5332 61.4804C29.4741 51.2488 18.0496 46.2046 15.367 47.2746Z" fill="#608C13"/>
<path d="M47.2695 61.3228L47.4084 61.2512C57.6329 67.0548 69.9004 74.4204 79.0887 80.4008C79.9614 80.9692 80.8688 81.5329 81.7961 82.0631L81.6523 82.2876C80.725 81.7526 79.8126 81.1889 78.935 80.6157C69.7567 74.6401 57.4891 67.1217 47.2695 61.3228Z" fill="#608C13"/>
<path d="M81.3848 82.1443L81.6129 81.9724C100.044 92.6291 125.972 90.0927 126.2 90.0927L123.339 93.2214C123.111 93.2357 99.9447 92.8727 81.3848 82.1443Z" fill="#608C13"/>
<path d="M99.2606 20.0572C99.2606 20.0572 93.226 36.2453 97.8127 47.652C102.399 59.0587 92.8541 87.3222 92.8541 87.3222C92.8541 87.3222 89.6856 99.2113 84.5882 102.182C84.5882 102.182 77.195 111.024 72.8612 112.037C68.5274 113.049 58.5607 122.02 58.8235 126.983" stroke="#608C13" stroke-miterlimit="10"/>
<path d="M107.423 21.1988C107.423 21.1988 103.168 29.5102 96.8359 29.4386" stroke="#608C13" stroke-miterlimit="10"/>
<path d="M115.951 32.0037C115.951 32.0037 113.377 43.4342 97.4355 46.6298" stroke="#608C13" stroke-miterlimit="10"/>
<path d="M122.591 49.0372C122.591 49.0372 115.089 60.6159 98.9238 59.2068" stroke="#608C13" stroke-miterlimit="10"/>
<path d="M121.187 70.7281C121.187 70.7281 107.07 79.6366 96.3945 74.7453" stroke="#608C13" stroke-miterlimit="10"/>
<path d="M89.2842 21.1988C89.2842 21.1988 92.9734 28.7173 97.0543 26.4532" stroke="#608C13" stroke-miterlimit="10"/>
<path d="M75.7764 32.6198C75.7764 32.6198 80.7349 42.7082 96.2503 40.936" stroke="#608C13" stroke-miterlimit="10"/>
<path d="M74.2793 47.7905C74.2793 47.7905 87.9253 55.7771 98.9928 53.6133" stroke="#608C13" stroke-miterlimit="10"/>
<path d="M81.4639 63.9595C81.4639 63.9595 92.2636 72.2566 97.3313 70.3507" stroke="#608C13" stroke-miterlimit="10"/>
<path d="M78.9355 70.1453C78.9355 70.1453 81.8561 78.8627 78.9851 80.5107" stroke="#608C13" stroke-miterlimit="10"/>
<path d="M69.3701 83.219C69.3701 83.219 74.9386 77.893 73.3866 76.9138" stroke="#608C13" stroke-miterlimit="10"/>
<path d="M59.1404 38.9776C59.1404 38.9776 64.0147 61.2798 57.6826 67.2984" stroke="#608C13" stroke-miterlimit="10"/>
<path d="M38.7607 92.0415C38.7607 92.0415 60.8214 78.3946 62.7454 70.3316" stroke="#608C13" stroke-miterlimit="10"/>
<path d="M25.9824 82.4213C25.9824 82.4213 46.734 73.1021 52.362 64.1745" stroke="#608C13" stroke-miterlimit="10"/>
<path d="M39.916 31.8317C39.916 31.8317 49.9571 47.9672 43.6845 59.2593" stroke="#608C13" stroke-width="0.75" stroke-miterlimit="10"/>
<path d="M19.2148 67.7665C19.2148 67.7665 34.5864 61.7718 37.6954 55.9968" stroke="#608C13" stroke-width="0.75" stroke-miterlimit="10"/>
<path d="M22.457 36.7516C22.457 36.7516 27.5991 45.8846 25.2041 49.854" stroke="#608C13" stroke-width="0.75" stroke-miterlimit="10"/>
<path d="M75.7324 90.7853C75.7324 90.7853 89.6164 88.9941 91.104 92.4858" stroke="#608C13" stroke-miterlimit="10"/>
<path d="M97.932 118.194C97.932 118.194 97.1833 103.568 88.5107 97.912" stroke="#608C13" stroke-miterlimit="10"/>
<path d="M59.8604 96.6701C59.8604 96.6701 74.4336 98.3276 79.5855 107.484" stroke="#608C13" stroke-miterlimit="10"/>
<path d="M84.3011 128.803C84.3011 128.803 86.5523 118.089 75.9062 110.513" stroke="#608C13" stroke-miterlimit="10"/>
<path d="M49.3623 109.615C49.3623 109.615 61.4513 109.018 67.9272 114.554" stroke="#608C13" stroke-miterlimit="10"/>
<path d="M66.0235 130.795C66.0235 130.795 64.8929 122.292 61.7393 120.682" stroke="#608C13" stroke-miterlimit="10"/>
<path opacity="0.1" d="M253.527 94.2818C226.319 107.47 196.563 113.221 167.55 117.654C138.538 122.087 109.252 125.502 80.6612 134.769C62.2748 140.73 42.8422 150.384 33.7779 165.382C25.0409 179.784 28.2689 195.141 32.8903 208.525C36.3613 218.59 40.824 228.774 50.3246 234.926C56.9295 239.196 65.5028 241.198 72.7027 244.833C97.7484 257.467 101.809 287.101 97.7732 314.362C95.879 327.149 92.6262 340.103 92.6708 352.637C92.7155 365.171 96.4691 377.591 106.793 384.994C117.027 392.331 132.394 393.822 147.453 392.637C178.052 390.249 208.82 378.025 238.126 364.889C303.013 335.814 365.169 301.15 427.181 266.571C450.119 253.775 473.162 240.916 494.28 225.759C506.007 217.343 517.586 207.675 523 196.106C529.898 181.423 524.637 165.425 510.733 158.819C487.428 147.737 448.463 162.349 428.366 147.876C417.264 139.909 415.816 125.33 417.626 111.645C421.503 82.2399 437.53 49.8302 425.297 24.9485C416.897 7.85763 394.792 -2.08738 370.653 0.372601C345.365 2.952 317.339 18.9682 309.802 40.5587C302.056 62.794 277.551 82.6124 253.527 94.2818Z" fill="#88C322"/>
<path opacity="0.1" d="M318.756 375.47C346.172 375.47 368.397 370.181 368.397 363.657C368.397 357.133 346.172 351.844 318.756 351.844C291.341 351.844 269.116 357.133 269.116 363.657C269.116 370.181 291.341 375.47 318.756 375.47Z" fill="#88C322"/>
<path d="M531.807 64.8241H72.9657C69.5453 64.8241 66.7725 67.4952 66.7725 70.7901V316C66.7725 319.295 69.5453 321.966 72.9657 321.966H531.807C535.228 321.966 538 319.295 538 316V70.7901C538 67.4952 535.228 64.8241 531.807 64.8241Z" fill="url(#paint0_linear)"/>
<path d="M531.112 68.44H73.7138C70.2933 68.44 67.5205 71.1111 67.5205 74.4061V315.145C67.5205 318.44 70.2933 321.111 73.7138 321.111H531.112C534.533 321.111 537.305 318.44 537.305 315.145V74.4061C537.305 71.1111 534.533 68.44 531.112 68.44Z" fill="white"/>
<path d="M531.112 68.44H73.7138C70.2933 68.44 67.5205 71.1111 67.5205 74.4061V315.145C67.5205 318.44 70.2933 321.111 73.7138 321.111H531.112C534.533 321.111 537.305 318.44 537.305 315.145V74.4061C537.305 71.1111 534.533 68.44 531.112 68.44Z" fill="white"/>
<path opacity="0.04" d="M531.112 68.44H73.7138C70.2933 68.44 67.5205 71.1111 67.5205 74.4061V315.145C67.5205 318.44 70.2933 321.111 73.7138 321.111H531.112C534.533 321.111 537.305 318.44 537.305 315.145V74.4061C537.305 71.1111 534.533 68.44 531.112 68.44Z" fill="#5A5773"/>
<path d="M534.926 65.5406H69.9114C69.2789 65.5406 68.6722 65.7827 68.2249 66.2135C67.7777 66.6444 67.5264 67.2288 67.5264 67.8382V77.5635H537.311V67.8382C537.311 67.2288 537.06 66.6444 536.613 66.2135C536.165 65.7827 535.559 65.5406 534.926 65.5406Z" fill="#5A5773"/>
<path d="M76.9028 74.6497C78.6828 74.6497 80.1258 73.2596 80.1258 71.5448C80.1258 69.8301 78.6828 68.44 76.9028 68.44C75.1227 68.44 73.6797 69.8301 73.6797 71.5448C73.6797 73.2596 75.1227 74.6497 76.9028 74.6497Z" fill="white"/>
<path d="M85.5805 74.6497C87.3605 74.6497 88.8036 73.2596 88.8036 71.5448C88.8036 69.8301 87.3605 68.44 85.5805 68.44C83.8004 68.44 82.3574 69.8301 82.3574 71.5448C82.3574 73.2596 83.8004 74.6497 85.5805 74.6497Z" fill="white"/>
<path d="M94.2582 74.6497C96.0383 74.6497 97.4813 73.2596 97.4813 71.5448C97.4813 69.8301 96.0383 68.44 94.2582 68.44C92.4782 68.44 91.0352 69.8301 91.0352 71.5448C91.0352 73.2596 92.4782 74.6497 94.2582 74.6497Z" fill="white"/>
<path opacity="0.1" d="M485.642 133.493H104.021C101.23 133.493 98.9678 135.673 98.9678 138.361V273.837C98.9678 276.525 101.23 278.704 104.021 278.704H485.642C488.433 278.704 490.695 276.525 490.695 273.837V138.361C490.695 135.673 488.433 133.493 485.642 133.493Z" fill="#88C322"/>
<path d="M495.067 128.789L113.57 119.423C110.78 119.354 108.461 121.477 108.39 124.165L104.807 259.596C104.735 262.284 106.939 264.518 109.729 264.586L491.227 273.953C494.016 274.021 496.335 271.898 496.406 269.211L499.99 133.779C500.061 131.092 497.857 128.858 495.067 128.789Z" fill="white"/>
<path opacity="0.2" d="M167.114 150.111L439.994 156.794" stroke="#5A5773" stroke-miterlimit="10"/>
<path opacity="0.2" d="M166.573 170.646L439.453 177.329" stroke="#5A5773" stroke-miterlimit="10"/>
<path opacity="0.2" d="M166.033 191.176L438.913 197.859" stroke="#5A5773" stroke-miterlimit="10"/>
<path opacity="0.2" d="M165.487 211.711L438.372 218.394" stroke="#5A5773" stroke-miterlimit="10"/>
<path opacity="0.2" d="M190.29 206.744L189.601 232.848" stroke="#5A5773" stroke-miterlimit="10" stroke-dasharray="12 12"/>
<path opacity="0.2" d="M164.946 232.246L437.826 238.924" stroke="#5A5773" stroke-miterlimit="10"/>
<path opacity="0.2" d="M220.463 233.603L221.489 194.687" stroke="#5A5773" stroke-miterlimit="10" stroke-dasharray="12 12"/>
<path opacity="0.2" d="M400.98 191.611C396.115 192.017 391.365 189.39 388.454 186.629C385.44 183.763 383.253 180.238 381.14 176.808C380.471 175.724 379.777 174.606 379.078 173.527C375.393 167.9 371.714 164.117 367.504 161.618C365.962 160.703 364.308 159.975 362.58 159.45C362.415 159.829 362.178 160.176 361.881 160.472C361.245 161.111 360.371 161.48 359.452 161.499H359.288C358.463 161.478 357.674 161.174 357.06 160.643C356.447 160.111 356.05 159.387 355.941 158.6C354.379 158.671 352.839 158.975 351.374 159.502C347.045 161.074 343.758 164.451 340.768 167.78C337.148 171.802 333.657 176.02 330.404 180.324C329.743 181.193 329.082 182.067 328.421 182.946C324.89 187.694 321.241 192.6 316.52 196.436C310.183 201.613 302.562 203.844 296.131 202.406C288.415 200.682 282.896 194.114 278.954 188.583C278.458 187.866 277.962 187.15 277.427 186.419C273.748 181.165 269.944 175.733 264.331 172.567C256.938 168.387 246.728 169.108 240.034 174.272C236.772 176.789 234.322 180.209 231.947 183.515C231.134 184.651 230.291 185.827 229.423 186.954C224.96 192.729 220.463 195.862 215.613 196.541C213.69 196.746 211.75 196.746 209.827 196.541C208.547 196.455 207.223 196.359 205.929 196.393C202.7 196.525 199.562 197.46 196.819 199.107C194.076 200.753 191.822 203.055 190.275 205.788L189.591 233.283L403.955 238.537L405.155 193.049C404.787 193.241 404.382 193.357 403.965 193.388C403.548 193.42 403.129 193.366 402.735 193.231C402.341 193.096 401.981 192.882 401.679 192.604C401.376 192.325 401.138 191.989 400.98 191.616V191.611Z" fill="#65617D"/>
<path opacity="0.2" d="M253.854 169.849L252.153 234.381" stroke="#5A5773" stroke-miterlimit="10" stroke-dasharray="12 12"/>
<path opacity="0.2" d="M283.749 194.539L282.678 235.127" stroke="#5A5773" stroke-miterlimit="10" stroke-dasharray="12 12"/>
<path opacity="0.2" d="M313.481 199.302L312.52 235.857" stroke="#5A5773" stroke-miterlimit="10" stroke-dasharray="12 12"/>
<path opacity="0.2" d="M342.335 166.586L340.49 236.54" stroke="#5A5773" stroke-miterlimit="10" stroke-dasharray="12 12"/>
<path opacity="0.2" d="M371.699 164.145L369.771 237.262" stroke="#5A5773" stroke-miterlimit="10" stroke-dasharray="12 12"/>
<path opacity="0.2" d="M404.223 191.635L402.993 238.074" stroke="#5A5773" stroke-miterlimit="10" stroke-dasharray="12 12"/>
<path d="M362.283 156.226C361.954 155.921 361.565 155.682 361.14 155.522C360.714 155.362 360.26 155.285 359.804 155.294C358.986 155.309 358.2 155.601 357.584 156.119C356.968 156.637 356.562 157.348 356.437 158.127C356.406 158.316 356.393 158.508 356.397 158.7C356.397 158.829 356.397 158.958 356.427 159.082C356.532 159.83 356.898 160.522 357.463 161.045C358.079 161.636 358.906 161.978 359.774 162.001H359.938C360.858 161.984 361.734 161.617 362.372 160.978C362.667 160.681 362.904 160.335 363.072 159.956C363.201 159.659 363.285 159.345 363.32 159.025C363.332 158.88 363.332 158.735 363.32 158.59C363.317 158.15 363.224 157.714 363.046 157.308C362.868 156.902 362.609 156.534 362.283 156.226ZM362.11 159.665C361.999 159.897 361.846 160.109 361.658 160.29C361.341 160.606 360.94 160.831 360.499 160.941C360.058 161.051 359.594 161.042 359.158 160.914C358.722 160.787 358.331 160.546 358.028 160.219C357.724 159.892 357.521 159.49 357.439 159.058C357.411 158.934 357.396 158.808 357.394 158.681C357.389 158.488 357.409 158.295 357.453 158.108C357.575 157.586 357.875 157.12 358.305 156.782C358.734 156.444 359.269 156.255 359.824 156.245H359.938C360.575 156.26 361.181 156.512 361.631 156.947C362.08 157.382 362.339 157.967 362.353 158.58C362.353 158.628 362.353 158.681 362.353 158.729C362.344 159.054 362.261 159.374 362.11 159.665Z" fill="#65617D"/>
<path d="M404.253 193.875C405.896 193.875 407.228 192.592 407.228 191.009C407.228 189.426 405.896 188.143 404.253 188.143C402.609 188.143 401.277 189.426 401.277 191.009C401.277 192.592 402.609 193.875 404.253 193.875Z" fill="#65617D"/>
<path d="M357.394 158.681C357.396 158.808 357.411 158.934 357.438 159.058C357.101 159.058 356.764 159.058 356.447 159.082C354.884 159.154 353.341 159.458 351.875 159.985C347.546 161.556 344.259 164.933 341.264 168.263C337.644 172.28 334.153 176.502 330.895 180.801C330.236 181.671 329.586 182.55 328.912 183.429C325.376 188.177 321.727 193.078 317.011 196.918C310.669 202.091 303.043 204.322 296.607 202.884C288.901 201.164 283.382 194.592 279.415 189.06C278.919 188.349 278.394 187.627 277.888 186.897C274.204 181.642 270.396 176.211 264.783 173.044C257.389 168.865 247.17 169.586 240.486 174.749C237.267 177.262 234.788 180.682 232.413 183.988C231.595 185.124 230.752 186.304 229.884 187.427C225.421 193.202 220.919 196.335 216.07 197.013C214.146 197.216 212.206 197.216 210.283 197.013C208.986 196.9 207.683 196.85 206.381 196.865C202.921 197.004 199.569 198.065 196.698 199.931C193.827 201.796 191.551 204.393 190.121 207.431L189.209 207.049C190.717 203.847 193.118 201.11 196.144 199.144C199.17 197.177 202.704 196.058 206.351 195.91C207.688 195.891 209.026 195.942 210.357 196.063C212.208 196.256 214.075 196.256 215.926 196.063C220.503 195.428 224.807 192.414 229.086 186.854C229.944 185.741 230.782 184.57 231.595 183.438C234.01 180.095 236.509 176.603 239.881 173.995C243.455 171.301 247.781 169.693 252.308 169.376C256.834 169.059 261.356 170.046 265.298 172.213C271.11 175.495 274.982 181.016 278.731 186.362C279.227 187.078 279.723 187.795 280.253 188.516C284.096 193.904 289.451 200.3 296.845 201.948C302.974 203.319 310.277 201.164 316.381 196.182C320.988 192.423 324.613 187.584 328.109 182.865C328.758 181.986 329.418 181.107 330.092 180.233C333.37 175.934 336.875 171.673 340.505 167.627C343.584 164.207 346.951 160.735 351.518 159.087C353.099 158.524 354.762 158.201 356.447 158.131C356.779 158.131 357.121 158.103 357.438 158.131C357.401 158.312 357.386 158.497 357.394 158.681Z" fill="#65617D"/>
<path d="M404.426 191.458C398.61 193.55 392.461 190.426 388.96 187.111C385.946 184.245 383.759 180.715 381.647 177.286C380.977 176.206 380.283 175.084 379.579 174.009C375.895 168.377 372.215 164.594 368.001 162.096C366.457 161.183 364.804 160.457 363.077 159.932C362.759 159.832 362.437 159.746 362.085 159.665C362.235 159.375 362.318 159.057 362.328 158.733C362.655 158.814 362.978 158.905 363.32 159.001C365.142 159.551 366.886 160.318 368.511 161.284C372.865 163.859 376.643 167.737 380.412 173.498C381.121 174.587 381.815 175.71 382.494 176.803C384.577 180.176 386.729 183.667 389.65 186.428C392.937 189.543 398.694 192.499 404.074 190.565L404.426 191.458Z" fill="#65617D"/>
<path opacity="0.5" d="M176.886 146.066L167.666 145.839C167.419 145.833 167.215 146.021 167.208 146.258L167.117 149.696C167.111 149.934 167.306 150.131 167.552 150.137L176.772 150.363C177.018 150.369 177.223 150.182 177.23 149.944L177.321 146.506C177.327 146.269 177.132 146.072 176.886 146.066Z" fill="#65617D"/>
<path d="M176.338 166.595L167.118 166.368C166.872 166.362 166.667 166.55 166.661 166.787L166.57 170.225C166.563 170.463 166.758 170.66 167.004 170.666L176.224 170.892C176.471 170.899 176.675 170.711 176.682 170.474L176.773 167.036C176.779 166.798 176.584 166.601 176.338 166.595Z" fill="#65617D"/>
<path opacity="0.5" d="M175.795 187.134L166.575 186.907C166.329 186.901 166.124 187.089 166.118 187.326L166.027 190.764C166.02 191.001 166.215 191.199 166.461 191.205L175.681 191.431C175.928 191.437 176.132 191.25 176.139 191.012L176.23 187.574C176.236 187.337 176.041 187.14 175.795 187.134Z" fill="#65617D"/>
<path opacity="0.5" d="M175.252 207.663L166.032 207.437C165.786 207.431 165.581 207.618 165.575 207.855L165.484 211.293C165.477 211.531 165.672 211.728 165.918 211.734L175.138 211.961C175.385 211.967 175.59 211.779 175.596 211.542L175.687 208.104C175.693 207.866 175.498 207.669 175.252 207.663Z" fill="#65617D"/>
<path opacity="0.5" d="M174.709 228.197L165.489 227.971C165.243 227.964 165.038 228.152 165.032 228.389L164.941 231.827C164.934 232.065 165.129 232.262 165.375 232.268L174.595 232.495C174.842 232.501 175.047 232.313 175.053 232.076L175.144 228.638C175.15 228.4 174.955 228.203 174.709 228.197Z" fill="#65617D"/>
<path opacity="0.5" d="M193.47 237.257L184.25 237.031C184.003 237.025 183.799 237.212 183.792 237.45L183.701 240.888C183.695 241.125 183.89 241.322 184.136 241.328L193.356 241.555C193.602 241.561 193.807 241.373 193.814 241.136L193.905 237.698C193.911 237.461 193.716 237.263 193.47 237.257Z" fill="#65617D"/>
<path opacity="0.5" d="M224.945 238.03L215.725 237.803C215.479 237.797 215.274 237.985 215.268 238.222L215.177 241.66C215.171 241.897 215.365 242.095 215.612 242.101L224.832 242.327C225.078 242.333 225.283 242.146 225.289 241.908L225.38 238.47C225.386 238.233 225.192 238.036 224.945 238.03Z" fill="#65617D"/>
<path d="M255.516 240.132L246.293 239.866C246.046 239.858 245.841 240.045 245.833 240.283L245.726 243.722C245.719 243.959 245.913 244.157 246.159 244.165L255.382 244.431C255.628 244.438 255.834 244.252 255.842 244.014L255.949 240.575C255.956 240.338 255.762 240.139 255.516 240.132Z" fill="#65617D"/>
<path opacity="0.5" d="M287.159 239.556L277.939 239.33C277.693 239.324 277.488 239.511 277.482 239.748L277.391 243.187C277.385 243.424 277.579 243.621 277.826 243.627L287.046 243.854C287.292 243.86 287.497 243.672 287.503 243.435L287.594 239.997C287.6 239.759 287.406 239.562 287.159 239.556Z" fill="#65617D"/>
<path opacity="0.5" d="M316.996 240.293L307.776 240.067C307.53 240.061 307.325 240.248 307.319 240.485L307.228 243.923C307.221 244.161 307.416 244.358 307.663 244.364L316.882 244.591C317.129 244.597 317.334 244.409 317.34 244.172L317.431 240.734C317.437 240.496 317.243 240.299 316.996 240.293Z" fill="#65617D"/>
<path d="M344.965 240.975L335.745 240.748C335.499 240.742 335.294 240.93 335.287 241.167L335.196 244.605C335.19 244.842 335.385 245.04 335.631 245.046L344.851 245.272C345.098 245.278 345.302 245.091 345.309 244.853L345.4 241.415C345.406 241.178 345.211 240.981 344.965 240.975Z" fill="#65617D"/>
<path d="M374.455 241.698L365.235 241.472C364.989 241.466 364.784 241.653 364.778 241.89L364.687 245.329C364.68 245.566 364.875 245.763 365.121 245.769L374.341 245.996C374.588 246.002 374.793 245.814 374.799 245.577L374.89 242.139C374.896 241.901 374.702 241.704 374.455 241.698Z" fill="#65617D"/>
<path d="M406.151 244.489L397.414 244.237C397.033 244.226 396.715 244.514 396.704 244.881L396.611 247.852C396.6 248.219 396.899 248.525 397.28 248.536L406.017 248.788C406.398 248.799 406.716 248.511 406.727 248.144L406.819 245.173C406.831 244.806 406.532 244.5 406.151 244.489Z" fill="#65617D"/>
<path d="M486.372 289.222C487.508 289.222 488.608 289.601 489.486 290.295C490.364 290.989 490.965 291.955 491.187 293.028C491.408 294.101 491.237 295.215 490.702 296.18C490.166 297.145 489.3 297.901 488.251 298.32C487.202 298.739 486.034 298.794 484.948 298.476C483.861 298.159 482.922 297.488 482.291 296.579C481.66 295.669 481.376 294.577 481.487 293.488C481.598 292.399 482.098 291.381 482.901 290.607C483.356 290.167 483.897 289.818 484.493 289.58C485.088 289.343 485.727 289.221 486.372 289.222ZM486.372 288.487C485.249 288.487 484.15 288.808 483.217 289.409C482.283 290.01 481.555 290.865 481.126 291.865C480.696 292.865 480.584 293.965 480.804 295.026C481.024 296.088 481.566 297.062 482.361 297.827C483.156 298.591 484.168 299.111 485.27 299.321C486.372 299.531 487.514 299.422 488.552 299.006C489.589 298.591 490.475 297.888 491.097 296.987C491.72 296.087 492.051 295.028 492.049 293.946C492.049 293.229 491.901 292.518 491.616 291.856C491.33 291.193 490.912 290.591 490.385 290.084C489.857 289.577 489.232 289.175 488.543 288.901C487.855 288.627 487.117 288.486 486.372 288.487Z" fill="#65617D"/>
<path d="M484.85 295.561L485.147 295.179C485.437 295.453 485.826 295.609 486.233 295.613C486.729 295.613 487.121 295.37 487.121 294.983C487.121 294.596 486.759 294.286 485.757 294.286V293.846C486.65 293.846 486.987 293.559 486.987 293.187C486.987 292.814 486.684 292.638 486.243 292.638C485.895 292.648 485.562 292.779 485.306 293.005L484.988 292.638C485.342 292.337 485.796 292.167 486.268 292.16C487.036 292.16 487.607 292.518 487.607 293.144C487.607 293.583 487.274 293.875 486.788 294.032V294.056C487.039 294.082 487.271 294.192 487.446 294.366C487.62 294.541 487.724 294.77 487.74 295.012C487.74 295.69 487.076 296.101 486.283 296.101C486.018 296.111 485.754 296.068 485.507 295.975C485.261 295.882 485.037 295.741 484.85 295.561Z" fill="#65617D"/>
<path d="M509.82 289.542C510.956 289.542 512.057 289.921 512.935 290.615C513.812 291.309 514.414 292.275 514.635 293.348C514.857 294.421 514.685 295.535 514.15 296.5C513.615 297.465 512.749 298.221 511.699 298.64C510.65 299.059 509.483 299.114 508.396 298.796C507.309 298.479 506.37 297.808 505.739 296.899C505.108 295.989 504.824 294.897 504.935 293.808C505.046 292.719 505.546 291.701 506.349 290.927C506.804 290.487 507.345 290.138 507.941 289.9C508.536 289.662 509.175 289.541 509.82 289.542ZM509.82 288.807C508.697 288.807 507.6 289.127 506.666 289.728C505.732 290.329 505.004 291.184 504.575 292.183C504.145 293.182 504.033 294.282 504.252 295.343C504.471 296.404 505.011 297.378 505.805 298.143C506.6 298.908 507.611 299.429 508.713 299.64C509.814 299.851 510.955 299.743 511.993 299.329C513.03 298.915 513.917 298.214 514.541 297.314C515.165 296.415 515.498 295.358 515.498 294.276C515.498 293.558 515.352 292.846 515.067 292.182C514.782 291.518 514.364 290.915 513.836 290.407C513.309 289.899 512.683 289.496 511.994 289.222C511.305 288.947 510.566 288.806 509.82 288.807Z" fill="#5A5773"/>
<path d="M509.895 293.703C509.895 293.469 509.895 293.172 509.929 292.938H509.895C509.756 293.144 509.597 293.349 509.458 293.555L508.467 294.801H511.149V295.303H507.772V294.902L509.786 292.351H510.524V296.411H509.91L509.895 293.703Z" fill="#5A5773"/>
<path d="M496.884 291.152C496.981 291.06 497.112 291.009 497.249 291.009C497.385 291.009 497.516 291.06 497.613 291.152L500.172 293.626C500.22 293.671 500.258 293.724 500.284 293.783C500.31 293.842 500.323 293.906 500.323 293.97C500.323 294.034 500.31 294.098 500.284 294.157C500.258 294.216 500.22 294.27 500.172 294.314L497.653 296.75C497.606 296.799 497.549 296.839 497.486 296.866C497.423 296.893 497.355 296.907 497.286 296.907C497.217 296.907 497.148 296.893 497.085 296.866C497.022 296.839 496.965 296.799 496.919 296.75C496.868 296.706 496.828 296.651 496.801 296.591C496.773 296.53 496.759 296.465 496.759 296.399C496.759 296.333 496.773 296.268 496.801 296.207C496.828 296.147 496.868 296.093 496.919 296.048L499.081 293.946L496.884 291.854C496.833 291.809 496.792 291.755 496.764 291.694C496.736 291.633 496.722 291.567 496.722 291.501C496.722 291.434 496.736 291.368 496.764 291.307C496.792 291.247 496.833 291.192 496.884 291.147V291.152Z" fill="#5A5773"/>
<path d="M492.521 293.946C492.519 295.01 492.844 296.05 493.456 296.935C494.069 297.821 494.94 298.511 495.96 298.919C496.979 299.327 498.102 299.434 499.185 299.227C500.268 299.02 501.263 298.508 502.043 297.756C502.824 297.004 503.356 296.045 503.571 295.002C503.786 293.959 503.674 292.877 503.251 291.895C502.827 290.913 502.111 290.074 501.192 289.484C500.273 288.894 499.193 288.58 498.089 288.582C496.613 288.583 495.197 289.149 494.153 290.155C493.109 291.16 492.522 292.524 492.521 293.946ZM493.378 293.946C493.376 292.893 493.754 291.871 494.446 291.056C495.139 290.24 496.103 289.681 497.176 289.474C498.248 289.268 499.362 289.425 500.327 289.921C501.292 290.417 502.049 291.219 502.468 292.192C502.888 293.166 502.944 294.249 502.627 295.257C502.31 296.265 501.64 297.137 500.73 297.722C499.821 298.308 498.729 298.571 497.641 298.468C496.553 298.365 495.535 297.901 494.762 297.156C494.322 296.736 493.973 296.236 493.735 295.685C493.498 295.134 493.376 294.543 493.378 293.946Z" fill="#5A5773"/>
<path opacity="0.2" d="M193.122 90.3029H84.2714C83.2144 90.3029 82.3574 91.1284 82.3574 92.1467V99.8514C82.3574 100.87 83.2144 101.695 84.2714 101.695H193.122C194.179 101.695 195.036 100.87 195.036 99.8514V92.1467C195.036 91.1284 194.179 90.3029 193.122 90.3029Z" fill="#5A5773"/>
<path d="M350.665 361.66C349.842 358.794 349.306 356.263 349.306 356.263C349.306 356.263 349.341 353.11 347.779 350.793L347.749 350.005L347.516 344.178C347.891 343.104 348.36 342.064 348.919 341.068C349.941 339.196 348.582 332.527 348.582 332.527C348.582 332.527 344.164 323.218 344.908 317.18C345.652 311.142 335.556 290.837 335.556 290.837C335.531 288.844 335.744 286.855 336.191 284.909C336.269 284.499 336.292 284.082 336.26 283.667C336.26 283.614 336.26 283.571 336.26 283.514C336.26 283.514 336.26 283.548 336.26 283.562C335.968 279.612 332.422 272.313 332.422 272.313L332.293 258.16C332.293 258.16 334.034 249.743 330.201 238.68C328.867 234.821 327.984 231.725 327.409 229.328C327.345 229.06 327.28 228.797 327.226 228.549C334.168 227.264 339.429 226.218 339.429 226.218C339.429 226.218 334.743 210.097 331.902 207.35C329.06 204.604 326.521 195.738 326.521 195.738C326.521 195.738 324.642 184.298 326.799 180.854C328.956 177.41 329.055 171.606 329.055 171.606C329.055 171.606 334.143 167.747 334.733 166.099C335.323 164.451 336.265 160.744 336.191 158.81C336.116 156.875 335.387 155.175 335.566 154.148C335.744 153.121 333.845 149.323 334.644 147.46C334.846 146.889 334.94 146.287 334.921 145.683C334.921 145.683 334.921 145.645 334.921 145.631C334.921 145.617 334.921 145.631 334.921 145.607C334.865 144.006 334.647 142.415 334.272 140.854C332.712 139.677 330.91 138.832 328.986 138.375L328.852 137.945L328.505 136.794C328.326 136.689 328.153 136.598 327.979 136.517L327.95 136.101L327.836 134.454L328.505 130.728C329.854 124.208 320.874 123.563 320.874 123.563C320.293 122.591 319.358 121.862 318.251 121.518C316.426 120.974 318.34 131.244 319.208 131.869C319.857 132.347 321.945 135.509 322.951 137.066L323.11 137.32C322.97 137.455 322.839 137.598 322.718 137.749L323.15 139.98L323.214 140.319C322.652 141.049 322.203 141.854 321.88 142.708C321.88 142.708 323.586 144.379 323.338 146.324C323.09 148.268 324.012 150.646 324.057 150.775C323.958 150.67 322.758 149.514 321.622 149.849C320.487 150.183 317.308 151.229 317.308 151.229C317.308 151.229 314.923 151.707 315.161 152.227C315.399 152.748 313.634 155.036 313.634 155.036L306.95 149.385C306.881 149.213 306.806 149.041 306.742 148.86C306.44 148.029 306.218 147.174 306.077 146.304C306.773 146.114 307.454 145.876 308.115 145.593C308.784 145.344 309.381 144.945 309.856 144.427C310.476 143.658 310.56 142.646 310.788 141.709C311.224 139.885 312.275 138.232 312.975 136.484C314.177 133.547 314.493 130.343 313.887 127.241C313.746 126.281 313.37 125.368 312.791 124.575C311.68 123.219 309.752 122.722 308.328 121.662C306.905 120.601 305.929 118.934 304.277 118.156C302.79 117.458 301.005 117.611 299.368 117.936C296.152 118.559 293.084 119.757 290.324 121.466C289.407 122.034 288.4 122.693 287.309 122.545C286.377 122.416 285.668 121.728 285.043 121.069C285.043 121.041 285.043 121.012 285.068 120.983L284.993 120.902C284.369 122.388 284.092 123.988 284.18 125.588C284.18 125.836 284.2 126.085 284.24 126.333C284.24 126.419 284.24 126.505 284.265 126.591C284.27 126.663 284.27 126.735 284.265 126.806C284.268 126.917 284.256 127.028 284.23 127.136C284.106 127.46 283.912 127.755 283.66 128C283.474 128.222 283.308 128.458 283.164 128.707C283.164 128.621 283.213 128.535 283.243 128.454C282.854 129.047 282.649 129.735 282.653 130.436C282.638 130.947 282.832 131.443 283.193 131.817C283.529 132.109 283.892 132.37 284.279 132.595C284.178 133.283 284.142 133.979 284.17 134.673C284.261 136.742 284.906 138.753 286.042 140.511C287.179 142.269 288.768 143.714 290.656 144.704L290.894 145.23C291.802 147.288 292.521 149.701 292.337 151.96C292.337 152.127 292.302 152.29 292.278 152.438C292.198 152.524 292.124 152.614 292.054 152.705C292.054 152.705 281.408 153.183 278.815 151.105C276.222 149.027 272.701 156.679 272.701 156.679C272.701 156.679 268.913 157.534 268.124 156.851C267.336 156.168 262.883 156.942 262.883 156.942C260.991 155.445 258.578 154.697 256.135 154.85C254.602 153.813 252.924 152.993 251.151 152.414L251.032 152.376C250.253 152.134 249.428 152.064 248.617 152.17C248.617 152.17 243.217 148.196 241.601 146.013C239.984 143.83 232.378 135.801 232.343 135.767L232.309 135.361L232.18 134.157C231.965 134.196 231.748 134.222 231.53 134.234C231.487 134.116 231.433 133.977 231.366 133.818C230.901 132.662 230.339 131.544 229.686 130.475C229.686 130.475 229.626 128.946 230.072 128.564C230.519 128.182 229.641 122.593 229.641 122.593C229.641 122.593 224.499 112.142 220.587 120.233C220.587 120.233 212.802 125.664 219.749 131.392C219.749 131.392 222.476 132.538 222.892 133.513C223.165 134.148 224.147 135.901 224.806 137.076L225.099 137.601L225.024 137.663L225.163 138.657L225.218 139.044C223.983 139.784 223.155 140.501 223.383 141.007C223.791 141.875 224.084 142.788 224.256 143.725C224.256 143.725 233.975 154.573 235.368 159.307C235.368 159.307 260.806 172.624 269.027 173.34L267.896 180.505C267.896 180.505 267.629 184.804 267.797 186.314C267.966 187.823 267.153 194.792 267.153 194.792C267.153 194.792 266.161 205.019 265 206.486C263.84 207.952 264.316 214.047 264.316 214.047C264.146 216.98 263.715 219.893 263.027 222.755C261.981 226.662 263.027 231.41 263.027 231.41C263.027 231.41 259.249 240.72 268.923 234.147C268.923 234.147 273.787 233.67 279.39 233.283C279.39 233.459 279.39 233.636 279.39 233.822C279.39 234.52 279.42 235.255 279.445 236.067C279.579 241.322 279.837 248.539 280.298 253.994C281.121 263.638 284.939 282.654 284.939 282.654L285.321 292.26C285.162 293.17 285.104 294.094 285.147 295.016C285.212 298.404 286.276 301.705 288.217 304.531L289.238 310.913C289.238 310.913 291.221 315.064 291.331 317.6C291.333 317.807 291.316 318.013 291.281 318.217C291.226 318.542 291.21 318.872 291.231 319.201C291.231 322.114 293.344 329.007 293.344 329.007C293.344 329.007 293.735 336.019 294.831 336.387C295.778 336.702 293.745 340.476 293.14 341.565C293.14 341.498 293.106 341.431 293.091 341.364L292.967 341.579C292.763 342.153 292.67 342.759 292.694 343.366C292.652 343.847 292.753 344.33 292.985 344.759C293.216 345.188 293.57 345.544 294.003 345.787C296.125 346.934 297.281 347.908 295.535 348.381C294.893 348.509 294.257 348.668 293.631 348.859L293.532 348.63C293.305 348.737 293.121 348.912 293.008 349.13C292.894 349.347 292.857 349.594 292.902 349.833C292.873 350.344 293.081 351.09 293.646 352.188C295.54 355.885 296.81 357.266 296.81 357.266L297.643 357.142C297.531 357.455 297.379 357.753 297.192 358.03C296.892 358.483 296.484 358.86 296.001 359.129C295.552 359.411 295.044 359.598 294.514 359.678C293.922 359.717 293.346 359.877 292.823 360.146C292.3 360.415 291.842 360.788 291.479 361.24C290.448 362.635 289.838 364.507 292.054 366.05L299.958 368.352C299.958 368.352 313.441 369.537 312.613 366.661C311.785 363.786 311.254 361.264 311.254 361.264C311.236 359.49 310.793 357.744 309.96 356.162C309.814 355.904 309.648 355.656 309.464 355.422L309.935 355.35C309.935 355.35 310.664 348.907 311.918 347.641C312.206 347.345 312.266 347.13 312.191 346.963C312.31 346.609 311.963 346.418 311.517 346.318C311.487 346.404 311.457 346.485 311.433 346.576C311.012 346.505 310.585 346.476 310.158 346.49C310.158 346.49 309.588 343.146 310.957 341.875C311.066 341.732 311.144 341.569 311.184 341.395C311.224 341.222 311.226 341.042 311.19 340.867C311.184 340.407 311.117 339.95 310.991 339.506C310.991 339.506 310.961 339.559 310.942 339.587C310.104 336.568 307.495 331.816 307.495 331.816C307.495 331.816 307.267 328.768 308.09 327.517C308.914 326.265 307.317 310.942 307.317 310.942C307.317 310.942 307.347 303.504 306.226 300.084C305.105 296.664 307.104 292.513 307.104 292.513C307.104 292.513 307.104 292.432 307.069 292.294C307.079 292.277 307.088 292.259 307.094 292.241C307.094 292.241 307.029 291.763 306.92 291.076C306.92 291.076 306.92 291.123 306.92 291.147C306.623 289.189 306.062 285.644 305.691 284.011C305.16 281.689 305.259 270.479 305.259 270.479L307.034 265.626L310.852 273.746L314.998 284.594C314.998 284.594 316.932 286.843 317.065 289.194C317.065 289.308 317.065 289.423 317.065 289.537C317.065 289.791 317.065 290.015 317.065 290.273C317.057 291.664 317.508 293.021 318.355 294.147C318.355 294.147 319.545 299.296 321.122 300.562C322.698 301.828 322.808 304.383 322.808 304.383C322.808 304.383 324.96 311.84 325.887 313.129C326.665 314.218 326.829 317.28 326.878 318.217C326.878 318.389 326.878 318.489 326.878 318.489C326.878 318.489 327.245 321.169 327.325 323.433C327.325 323.71 327.325 323.982 327.325 324.235C327.325 324.235 327.325 324.197 327.325 324.178C327.348 324.794 327.296 325.412 327.171 326.017C327.171 326.046 327.171 326.084 327.141 326.122C327.141 325.993 327.141 325.864 327.141 325.74C326.817 327.289 326.692 328.871 326.769 330.45C326.829 333.158 327.384 336.344 329.159 338.164C332.234 341.312 334.073 340.834 334.073 340.834C334.073 340.834 332.819 344.956 331.098 345.835C331.034 345.868 330.974 345.908 330.92 345.955C330.92 345.878 330.88 345.797 330.865 345.721C330.683 345.932 330.549 346.177 330.472 346.441C330.394 346.705 330.374 346.982 330.414 347.254C330.359 349.05 331.649 351.911 332.814 353.206C333.237 353.577 333.747 353.843 334.301 353.979C334.216 354.042 334.127 354.1 334.034 354.151C333.844 354.262 333.647 354.361 333.444 354.448C333.166 354.579 332.868 354.666 332.561 354.705C331.97 354.744 331.394 354.903 330.872 355.172C330.349 355.442 329.892 355.815 329.531 356.267C328.5 357.657 327.885 359.53 330.102 361.073L338.01 363.375C338.01 363.375 351.493 364.536 350.665 361.66Z" fill="url(#paint1_linear)"/>
<path d="M299.612 368.367L291.961 366.074C289.814 364.526 290.399 362.654 291.401 361.264C291.744 360.816 292.183 360.444 292.689 360.175C293.195 359.905 293.755 359.744 294.331 359.702C294.841 359.623 295.327 359.437 295.754 359.157C296.226 358.887 296.623 358.51 296.91 358.059C297.426 357.196 297.685 356.212 297.658 355.217C297.658 355.217 305.855 352.57 308.215 354.825C308.637 355.233 308.995 355.698 309.276 356.205C310.087 357.791 310.519 359.53 310.541 361.297C310.541 361.297 311.061 363.819 311.865 366.695C312.668 369.57 299.612 368.367 299.612 368.367Z" fill="#2D293D"/>
<path d="M336.439 363.413L328.783 361.101C326.636 359.554 327.226 357.681 328.223 356.291C328.565 355.843 329.005 355.471 329.511 355.203C330.017 354.934 330.577 354.774 331.154 354.734C331.451 354.695 331.739 354.607 332.006 354.476C332.205 354.392 332.397 354.295 332.582 354.185C334.649 352.986 334.481 350.244 334.481 350.244C334.481 350.244 342.677 347.598 345.042 349.852C345.358 350.157 345.637 350.496 345.875 350.86C347.393 353.177 347.363 356.339 347.363 356.339C347.363 356.339 347.889 358.866 348.687 361.737C349.485 364.607 336.439 363.413 336.439 363.413Z" fill="#2D293D"/>
<path opacity="0.1" d="M308.215 354.806C308.637 355.213 308.994 355.679 309.276 356.186L296.909 358.035C297.426 357.172 297.685 356.188 297.658 355.193C297.658 355.193 305.854 352.551 308.215 354.806Z" fill="#9C69E2"/>
<path opacity="0.1" d="M345.86 350.86L345.95 353.1C344.145 356.239 334.768 355.914 331.991 354.476C332.19 354.392 332.382 354.295 332.566 354.185C334.634 352.986 334.466 350.244 334.466 350.244C334.466 350.244 342.662 347.598 345.027 349.852C345.343 350.157 345.622 350.496 345.86 350.86Z" fill="#9C69E2"/>
<path d="M346.951 341.149C346.41 342.146 345.957 343.184 345.598 344.254L345.92 352.289C343.936 355.723 332.914 355.011 331.361 353.244C329.809 351.476 328.039 346.748 329.695 345.869C331.352 344.99 332.561 340.877 332.561 340.877C332.561 340.877 330.781 341.355 327.801 338.202C324.821 335.05 325.376 327.799 325.818 326.05C326.259 324.302 325.51 318.522 325.51 318.522C325.51 318.522 325.456 314.453 324.558 313.163C323.661 311.873 321.583 304.412 321.583 304.412C321.583 304.412 321.484 301.866 319.952 300.591C318.42 299.315 317.264 294.171 317.264 294.171C316.348 292.906 315.914 291.376 316.035 289.838C316.248 287.283 314.026 284.613 314.026 284.613L310 273.765L306.291 265.645L304.58 270.498C304.58 270.498 304.501 281.704 305.017 284.025C305.532 286.347 306.415 292.532 306.415 292.532C306.415 292.532 304.461 296.679 305.552 300.099C306.643 303.519 306.618 310.961 306.618 310.961C306.618 310.961 308.185 326.284 307.387 327.536C306.588 328.787 306.822 331.835 306.822 331.835C306.822 331.835 311.507 340.624 310.183 341.895C308.859 343.165 309.415 346.504 309.415 346.504C309.415 346.504 312.39 346.394 311.15 347.665C309.911 348.935 309.241 355.374 309.241 355.374L296.532 357.285C296.532 357.285 295.303 355.904 293.463 352.203C291.623 348.501 293.647 348.835 295.328 348.381C297.009 347.927 295.898 346.948 293.84 345.787C291.782 344.627 292.848 341.851 292.848 341.851C292.848 341.851 295.709 336.755 294.638 336.387C293.567 336.019 293.18 329.007 293.18 329.007C293.18 329.007 290.736 320.743 291.197 318.498C291.658 316.253 289.214 310.932 289.214 310.932L288.222 304.551C284.126 298.355 285.366 292.513 285.366 292.513L284.969 282.645C284.969 282.645 281.25 263.634 280.442 253.985C279.946 247.804 279.663 239.359 279.544 234.085C279.475 231.124 279.45 229.165 279.45 229.165L324.881 222.898C324.881 222.898 324.915 224.928 325.967 229.395C326.527 231.783 327.385 234.888 328.684 238.752C332.403 249.815 330.732 258.231 330.732 258.231L330.876 272.384C330.876 272.384 335.264 281.694 334.55 284.981C334.128 286.928 333.93 288.914 333.96 290.904C333.96 290.904 343.758 311.219 343.049 317.256C342.34 323.294 346.619 332.604 346.619 332.604C346.619 332.604 347.933 339.277 346.951 341.149Z" fill="#575988"/>
<path opacity="0.05" d="M318.757 289.127L332.571 286.829C332.571 286.829 325.034 294.854 318.757 289.127Z" fill="#9C69E2"/>
<path opacity="0.1" d="M330.043 273.837C330.043 273.837 330.707 278.546 327.767 280.438C327.767 280.438 333.122 279.425 330.043 273.837Z" fill="#9C69E2"/>
<path opacity="0.1" d="M328.589 258.814C328.589 258.814 317.348 268.449 313.098 267.842C308.849 267.235 328.589 258.814 328.589 258.814Z" fill="#9C69E2"/>
<path opacity="0.1" d="M301.729 294.085C301.729 294.085 292.982 296.335 292.853 299.76C292.724 303.184 301.729 294.085 301.729 294.085Z" fill="#9C69E2"/>
<path opacity="0.05" d="M305.354 336.425C305.354 336.425 292.987 339.124 296.582 340.519C300.177 341.914 306.038 342.907 306.038 342.907C306.038 342.907 310.055 342.974 305.354 336.425Z" fill="#9C69E2"/>
<g opacity="0.05">
<path opacity="0.05" d="M294.163 343.031C293.843 342.853 293.57 342.608 293.361 342.315C293.153 342.021 293.015 341.687 292.958 341.336L292.839 341.555C292.839 341.555 291.783 344.345 293.83 345.491C294.068 345.62 294.287 345.749 294.5 345.878C294.862 345.797 295.263 345.735 295.64 345.625C297.336 345.157 296.22 344.178 294.163 343.031Z" fill="#9C69E2"/>
<path opacity="0.05" d="M310.159 341.627C310.491 341.307 310.447 340.528 310.199 339.53C309.668 340.342 309.579 341.57 309.609 342.501C309.723 342.174 309.911 341.876 310.159 341.627Z" fill="#9C69E2"/>
<path opacity="0.05" d="M306.242 291.08C305.831 292.3 305.597 293.568 305.548 294.849C305.752 293.956 306.04 293.083 306.411 292.241C306.411 292.241 306.346 291.806 306.242 291.08Z" fill="#9C69E2"/>
<path opacity="0.05" d="M334.551 284.699C334.621 284.33 334.646 283.955 334.625 283.581C334.496 284.35 334.417 285.057 334.362 285.678C334.417 285.348 334.481 285.033 334.551 284.699Z" fill="#9C69E2"/>
<path opacity="0.05" d="M307.387 327.264C307.546 327.01 307.611 326.165 307.611 324.995C307.258 325.911 307.09 326.884 307.115 327.861C307.181 327.652 307.272 327.451 307.387 327.264Z" fill="#9C69E2"/>
<path opacity="0.05" d="M310.769 346.346C309.99 348.668 309.564 352.647 309.564 352.647L296.855 354.557C296.855 354.557 295.625 353.177 293.795 349.465C293.637 349.141 293.503 348.849 293.399 348.582C292.65 348.95 292.377 349.723 293.473 351.925C295.313 355.627 296.537 357.008 296.537 357.008L309.246 355.097C309.246 355.097 309.941 348.653 311.16 347.383C311.75 346.771 311.339 346.49 310.769 346.346Z" fill="#9C69E2"/>
<path opacity="0.05" d="M293.171 328.706C293.171 328.706 293.558 335.723 294.629 336.091C295.125 334.906 295.427 333.793 294.946 333.631C293.875 333.263 293.488 326.246 293.488 326.246C293.488 326.246 291.044 317.987 291.505 315.737C291.966 313.488 289.521 308.171 289.521 308.171L288.53 301.794C284.479 295.628 285.723 289.776 285.723 289.776L285.327 279.913C285.327 279.913 281.608 260.901 280.799 251.253C280.303 245.076 280.021 236.626 279.902 231.353C279.902 230.398 279.862 229.557 279.847 228.845L279.485 228.893C279.485 228.893 279.485 230.851 279.575 233.813C279.699 239.067 279.956 247.532 280.477 253.708C281.285 263.357 285.004 282.368 285.004 282.368L285.366 292.227C285.366 292.227 284.122 298.078 288.173 304.245L289.164 310.626C289.164 310.626 291.599 315.933 291.148 318.188C290.697 320.443 293.171 328.706 293.171 328.706Z" fill="#9C69E2"/>
<path opacity="0.05" d="M331.684 350.502C330.586 349.097 329.829 347.473 329.468 345.749C328.208 346.929 329.884 351.271 331.357 352.962C332.909 354.739 343.932 355.451 345.91 352.007L345.831 350.067C343.089 352.909 333.147 352.183 331.684 350.502Z" fill="#9C69E2"/>
<path opacity="0.05" d="M347.269 338.417C346.728 339.413 346.275 340.452 345.915 341.522L345.97 342.955C346.188 342.425 346.505 341.718 346.961 340.877C347.264 340.065 347.387 339.201 347.323 338.341C347.294 338.369 347.284 338.393 347.269 338.417Z" fill="#9C69E2"/>
<path opacity="0.05" d="M331.937 340.59C332.306 339.793 332.621 338.973 332.879 338.135C332.879 338.135 331.099 338.613 328.119 335.46C325.952 333.168 325.64 328.701 325.833 325.768C325.372 327.517 324.817 334.768 327.816 337.916C329.745 339.974 331.178 340.485 331.937 340.59Z" fill="#9C69E2"/>
<path opacity="0.05" d="M325.531 318.241C325.794 320.237 325.945 322.247 325.982 324.259C326.021 323.937 326.081 323.618 326.161 323.304C326.622 321.556 325.853 315.781 325.853 315.781C325.853 315.781 325.799 311.706 324.901 310.416C324.004 309.127 321.926 301.665 321.926 301.665C321.926 301.665 321.827 299.124 320.295 297.844C318.762 296.564 317.597 291.439 317.597 291.439C316.678 290.175 316.244 288.644 316.368 287.106C316.581 284.551 314.384 281.885 314.384 281.885L310.323 271.018L306.614 262.898L304.903 267.77C304.903 267.77 304.903 268.372 304.903 269.318L306.292 265.377L310.001 273.497L314.032 284.35C314.032 284.35 316.253 287.02 316.015 289.571C315.893 291.11 316.328 292.642 317.245 293.908C317.245 293.908 318.405 299.057 319.933 300.328C321.46 301.599 321.569 304.149 321.569 304.149C321.569 304.149 323.662 311.611 324.544 312.9C325.427 314.19 325.531 318.241 325.531 318.241Z" fill="#9C69E2"/>
</g>
<path d="M326.919 130.79L326.274 134.535L326.388 136.183L326.467 137.401L322.084 138.003L321.553 137.143C320.562 135.586 318.553 132.419 317.924 131.941C317.081 131.315 315.216 121.045 316.987 121.59C318.066 121.948 318.97 122.678 319.525 123.639C319.525 123.639 328.218 124.274 326.919 130.79Z" fill="#FFCDD3"/>
<path opacity="0.1" d="M326.467 137.401L322.083 138.003L321.553 137.143C322.12 136.47 322.911 136.007 323.793 135.833C324.674 135.659 325.591 135.784 326.387 136.187L326.467 137.401Z" fill="#9C69E2"/>
<path d="M327.662 139.374L321.905 140.883L321.747 140.057L321.33 137.826C321.33 137.826 323.512 134.788 326.923 136.871L327.26 138.003L327.662 139.374Z" fill="#DCE6F2"/>
<path d="M233.231 134.668L227.162 138.108C227.162 138.108 226.904 137.63 226.552 137C225.918 135.829 224.966 134.067 224.698 133.436C224.291 132.481 221.653 131.306 221.653 131.306C214.924 125.574 222.452 120.152 222.452 120.152C226.225 112.065 231.218 122.541 231.218 122.541C231.218 122.541 232.071 128.115 231.64 128.511C231.208 128.908 231.268 130.422 231.268 130.422C231.906 131.491 232.452 132.61 232.899 133.766C233.117 134.325 233.231 134.668 233.231 134.668Z" fill="#FFCDD3"/>
<path opacity="0.1" d="M233.232 134.668L227.163 138.108C227.163 138.108 226.905 137.63 226.553 136.999C227.401 136.264 230.406 133.723 231.432 133.794C231.927 133.84 232.425 133.84 232.92 133.794C233.118 134.325 233.232 134.668 233.232 134.668Z" fill="#9C69E2"/>
<path d="M233.936 136.455L227.103 140.018L226.904 138.585L226.766 137.592C226.766 137.592 230.673 134.11 231.868 134.191C232.475 134.251 233.088 134.227 233.688 134.119L233.817 135.328L233.936 136.455Z" fill="#DCE6F2"/>
<path d="M311.011 156.082C311.011 156.082 280.764 160.51 286.367 158.523C290.27 157.138 291.747 154.659 291.965 151.96C292.144 149.701 291.47 147.288 290.567 145.23C289.775 143.409 288.793 141.671 287.637 140.042C287.637 140.042 310.372 126.873 306.191 138.227C305.54 139.945 305.167 141.75 305.086 143.577C305.014 145.391 305.288 147.203 305.894 148.922C306.88 151.718 308.652 154.197 311.011 156.082Z" fill="#FFCDD3"/>
<path opacity="0.1" d="M306.191 138.227C305.54 139.945 305.167 141.75 305.086 143.577C302.968 145.43 300.564 145.402 297.484 145.516C295.114 145.602 292.526 146.252 290.582 145.225C289.79 143.405 288.808 141.667 287.651 140.037C287.651 140.037 310.372 126.873 306.191 138.227Z" fill="#9C69E2"/>
<path d="M296.602 146.319C303.547 146.319 309.177 140.895 309.177 134.205C309.177 127.515 303.547 122.092 296.602 122.092C289.657 122.092 284.027 127.515 284.027 134.205C284.027 140.895 289.657 146.319 296.602 146.319Z" fill="#FFCDD3"/>
<path opacity="0.1" d="M311.011 156.082C311.011 156.082 280.764 160.51 286.367 158.523C290.27 157.138 291.747 154.659 291.965 151.96C293.418 150.326 296.428 149.094 298.337 148.397C300.097 147.755 302.019 147.653 303.841 148.105C304.558 148.282 305.245 148.559 305.879 148.927C306.871 151.723 308.647 154.2 311.011 156.082Z" fill="#9C69E2"/>
<path opacity="0.1" d="M327.663 139.374L321.906 140.883L321.747 140.057C322.336 139.21 323.181 138.559 324.168 138.193C325.155 137.826 326.235 137.761 327.261 138.007L327.663 139.374Z" fill="#9C69E2"/>
<path opacity="0.1" d="M233.936 136.455L227.103 140.018L226.904 138.585C229.339 137.076 233.46 135.466 233.817 135.328L233.936 136.455Z" fill="#9C69E2"/>
<path opacity="0.1" d="M325.976 229.39C314.284 231.616 297.628 234.568 294.94 233.885C292.709 233.321 285.673 233.65 279.569 234.08C279.499 231.119 279.475 229.16 279.475 229.16L324.905 222.893C324.905 222.893 324.925 224.924 325.976 229.39Z" fill="#9C69E2"/>
<path d="M337.609 226.294C337.609 226.294 299.116 234.138 294.906 233.073C290.696 232.007 269.404 234.119 269.404 234.119C260.042 240.677 263.692 231.377 263.692 231.377C263.692 231.377 262.656 226.629 263.662 222.721C264.325 219.858 264.739 216.947 264.902 214.018C264.902 214.018 264.446 207.923 265.551 206.457C266.657 204.991 267.619 194.768 267.619 194.768C267.619 194.768 268.398 187.809 268.234 186.29C268.07 184.771 268.318 180.481 268.318 180.481L269.404 173.316C261.471 172.59 236.807 159.244 236.807 159.244C235.453 154.506 226.032 143.653 226.032 143.653C225.866 142.717 225.581 141.805 225.184 140.935C224.485 139.331 233.856 135.724 233.856 135.724C233.856 135.724 241.264 143.801 242.831 145.984C244.398 148.167 249.634 152.146 249.634 152.146C250.419 152.045 251.218 152.117 251.97 152.356C252.012 152.364 252.054 152.375 252.094 152.39C253.819 152.975 255.447 153.797 256.929 154.831C260.717 154.487 263.459 156.933 263.459 156.933C263.459 156.933 267.763 156.163 268.532 156.847C269.3 157.53 272.965 156.684 272.965 156.684C272.965 156.684 276.361 149.018 278.875 151.115C281.389 153.211 291.693 152.729 291.693 152.729C292.997 150.919 296.285 149.533 298.347 148.807C300.107 148.166 302.03 148.064 303.851 148.516C304.642 148.71 305.391 149.033 306.068 149.471L312.554 155.136C312.554 155.136 314.26 152.834 314.041 152.333C313.823 151.831 316.119 151.339 316.119 151.339C316.119 151.339 319.144 150.307 320.294 149.963C321.444 149.619 322.555 150.785 322.649 150.89C322.61 150.761 321.717 148.33 321.95 146.438C322.183 144.547 320.537 142.822 320.537 142.822C323.884 133.938 332.517 140.955 332.517 140.955C332.517 140.955 333.657 145.698 332.884 147.561C332.11 149.424 333.955 153.226 333.786 154.248C333.618 155.27 334.317 156.98 334.396 158.91C334.476 160.84 333.553 164.499 332.968 166.166C332.383 167.833 327.514 171.664 327.514 171.664C327.514 171.664 327.429 177.472 325.347 180.907C323.264 184.341 325.094 195.791 325.094 195.791C325.094 195.791 327.573 204.661 330.315 207.412C333.057 210.164 337.609 226.294 337.609 226.294Z" fill="#656691"/>
<path opacity="0.1" d="M278.449 161.466C278.449 161.466 277.155 158.151 276.084 157.888C275.019 157.552 273.979 157.149 272.97 156.679L273.599 155.399C273.599 155.399 277.611 156.302 278.285 157.396C278.96 158.49 278.449 161.466 278.449 161.466Z" fill="#9C69E2"/>
<path opacity="0.1" d="M256.933 154.826C256.759 155.853 247.402 157.114 247.402 157.114L251.969 152.337L252.088 152.376C253.817 152.963 255.449 153.789 256.933 154.826Z" fill="#9C69E2"/>
<path d="M229.185 142.689C229.65 142.689 230.028 142.325 230.028 141.876C230.028 141.428 229.65 141.064 229.185 141.064C228.719 141.064 228.342 141.428 228.342 141.876C228.342 142.325 228.719 142.689 229.185 142.689Z" fill="#575988"/>
<path d="M230.331 144.274C230.797 144.274 231.174 143.911 231.174 143.462C231.174 143.014 230.797 142.65 230.331 142.65C229.866 142.65 229.488 143.014 229.488 143.462C229.488 143.911 229.866 144.274 230.331 144.274Z" fill="#575988"/>
<path d="M231.446 145.736C231.912 145.736 232.289 145.372 232.289 144.924C232.289 144.475 231.912 144.112 231.446 144.112C230.981 144.112 230.604 144.475 230.604 144.924C230.604 145.372 230.981 145.736 231.446 145.736Z" fill="#575988"/>
<path d="M232.621 147.322C233.087 147.322 233.464 146.958 233.464 146.51C233.464 146.061 233.087 145.698 232.621 145.698C232.156 145.698 231.778 146.061 231.778 146.51C231.778 146.958 232.156 147.322 232.621 147.322Z" fill="#575988"/>
<path d="M332.139 143.395C332.52 143.395 332.829 143.098 332.829 142.731C332.829 142.365 332.52 142.068 332.139 142.068C331.759 142.068 331.45 142.365 331.45 142.731C331.45 143.098 331.759 143.395 332.139 143.395Z" fill="#575988"/>
<path d="M332.303 144.891C332.684 144.891 332.993 144.593 332.993 144.227C332.993 143.86 332.684 143.563 332.303 143.563C331.923 143.563 331.614 143.86 331.614 144.227C331.614 144.593 331.923 144.891 332.303 144.891Z" fill="#575988"/>
<path d="M332.457 146.386C332.837 146.386 333.146 146.088 333.146 145.722C333.146 145.355 332.837 145.058 332.457 145.058C332.076 145.058 331.768 145.355 331.768 145.722C331.768 146.088 332.076 146.386 332.457 146.386Z" fill="#575988"/>
<path opacity="0.1" d="M279.604 189.027C279.5 188.907 304.456 216.98 322.248 199.564C322.267 199.564 293.225 204.46 279.604 189.027Z" fill="#9C69E2"/>
<path opacity="0.1" d="M266.523 204.584C266.523 204.584 280.779 204.432 282.426 208.32L282.589 212.428C282.193 212.661 281.742 212.792 281.279 212.81C280.815 212.828 280.355 212.73 279.941 212.528C278.454 211.831 269.697 207.938 266.742 210.078L266.523 204.584Z" fill="#9C69E2"/>
<path d="M266.796 204.575C266.796 204.575 280.432 204.427 282.004 208.138L282.163 212.05C281.783 212.272 281.352 212.397 280.908 212.414C280.465 212.431 280.025 212.339 279.629 212.146C278.225 211.487 269.831 207.771 267.004 209.815L266.796 204.575Z" fill="#656691"/>
<path opacity="0.1" d="M273.113 174.53C274.7 177.718 276.678 180.713 279.004 183.448C281.538 186.477 284.567 189.088 287.974 191.176C287.974 191.176 273.431 176.383 273.113 174.53Z" fill="#9C69E2"/>
<path opacity="0.1" d="M267.817 158.738C267.817 158.738 270.589 168.53 276.847 171.659L267.817 158.738Z" fill="#9C69E2"/>
<path opacity="0.1" d="M264.218 159.87C264.149 159.689 262.418 167.761 272.598 171.812C272.598 171.817 268.294 170.584 264.218 159.87Z" fill="#9C69E2"/>
<path opacity="0.1" d="M326.14 150.938C325.982 150.938 331.203 153.88 332.641 155.28C332.641 155.28 329.14 150.646 326.14 150.938Z" fill="#9C69E2"/>
<path d="M293.647 145.306C293.85 145.922 294.098 146.596 294.693 146.901C295.068 147.063 295.478 147.135 295.888 147.112C299.726 147.202 303.718 147.217 307.203 145.679C307.857 145.428 308.436 145.026 308.889 144.508C309.489 143.744 309.569 142.731 309.787 141.795C310.208 139.971 311.205 138.318 311.899 136.57C313.067 133.613 313.369 130.404 312.772 127.293C312.636 126.337 312.271 125.424 311.706 124.628C310.635 123.267 308.761 122.77 307.372 121.709C305.984 120.649 305.051 118.977 303.45 118.199C302.007 117.496 300.281 117.649 298.7 117.969C295.584 118.601 292.623 119.803 289.977 121.509C289.09 122.077 288.118 122.736 287.062 122.583C286.135 122.455 285.44 121.733 284.82 121.06C284.14 122.747 283.89 124.567 284.092 126.367C284.139 126.631 284.139 126.9 284.092 127.164C283.973 127.485 283.785 127.778 283.541 128.024C282.639 129.118 282.113 130.809 283.09 131.845C283.516 132.294 284.151 132.524 284.578 132.982C285.321 133.809 285.133 135.041 285.158 136.13C285.132 136.509 285.246 136.885 285.48 137.191C285.692 137.366 285.947 137.485 286.22 137.538C286.494 137.591 286.777 137.575 287.042 137.491C287.57 137.315 288.13 137.242 288.688 137.277C289.29 137.44 289.815 137.797 290.176 138.289C292.015 140.367 292.804 142.722 293.647 145.306Z" fill="#2D293D"/>
<g opacity="0.1">
<path opacity="0.1" d="M309.271 143.548C308.819 144.065 308.242 144.465 307.59 144.714C304.119 146.266 300.113 146.252 296.27 146.147C295.86 146.167 295.451 146.095 295.075 145.937C294.485 145.631 294.232 144.953 294.029 144.336C293.186 141.757 292.397 139.397 290.558 137.296C290.195 136.807 289.67 136.451 289.07 136.288C288.512 136.254 287.953 136.325 287.424 136.498C287.158 136.582 286.875 136.598 286.6 136.546C286.326 136.495 286.07 136.376 285.857 136.202C285.625 135.893 285.511 135.517 285.535 135.137C285.51 134.048 285.698 132.815 284.959 131.994C284.543 131.516 283.908 131.306 283.472 130.852C283.195 130.515 283.018 130.113 282.959 129.688C282.899 129.263 282.96 128.83 283.135 128.435C282.505 129.486 282.267 130.823 283.085 131.683C283.506 132.132 284.146 132.361 284.573 132.825C285.316 133.646 285.128 134.879 285.153 135.968C285.127 136.347 285.241 136.722 285.475 137.028C285.687 137.203 285.942 137.323 286.215 137.375C286.489 137.428 286.772 137.412 287.037 137.329C287.566 137.155 288.125 137.082 288.683 137.114C289.285 137.277 289.81 137.635 290.171 138.127C292.03 140.229 292.814 142.583 293.642 145.168C293.845 145.784 294.093 146.457 294.688 146.768C295.064 146.927 295.473 146.999 295.883 146.978C299.721 147.064 303.713 147.078 307.199 145.545C307.851 145.294 308.429 144.894 308.884 144.379C309.106 144.074 309.274 143.735 309.38 143.376C309.351 143.434 309.316 143.481 309.271 143.548Z" fill="#9C69E2"/>
<path opacity="0.1" d="M284.121 126.816C284.284 126.633 284.406 126.42 284.478 126.19C284.528 125.928 284.528 125.659 284.478 125.397C284.311 123.919 284.451 122.423 284.89 120.998L284.815 120.916C284.135 122.604 283.885 124.424 284.086 126.223C284.118 126.419 284.129 126.618 284.121 126.816Z" fill="#9C69E2"/>
</g>
<path opacity="0.1" d="M291.698 152.724C291.698 152.724 307.471 154.157 308.795 151.821L291.698 152.724Z" fill="#9C69E2"/>
<path opacity="0.1" d="M321.96 145.335C321.96 145.335 330.682 145.024 332.725 148.1L321.96 145.335Z" fill="#9C69E2"/>
<path d="M512.672 304.933C512.672 304.933 515.612 308.635 511.313 314.228C507.014 319.822 503.474 324.541 504.907 328.028C504.907 328.028 511.392 317.643 516.668 317.495C521.944 317.347 518.478 311.171 512.672 304.933Z" fill="#88C322"/>
<path opacity="0.1" d="M512.672 304.933C512.93 305.289 513.132 305.68 513.272 306.093C518.424 311.921 521.166 317.361 516.217 317.495C511.606 317.624 506.072 325.568 504.748 327.569C504.792 327.731 504.845 327.891 504.907 328.047C504.907 328.047 511.392 317.662 516.668 317.514C521.944 317.366 518.478 311.171 512.672 304.933Z" fill="#9C69E2"/>
<path d="M518.14 309.647C518.14 310.951 517.987 312.007 517.798 312.007C517.61 312.007 517.461 310.951 517.461 309.647C517.461 308.343 517.649 308.959 517.838 308.959C518.026 308.959 518.14 308.343 518.14 309.647Z" fill="#FFD037"/>
<path d="M520.015 311.204C518.825 311.825 517.789 312.203 517.7 312.045C517.61 311.887 518.503 311.252 519.683 310.612C520.863 309.972 520.402 310.44 520.496 310.612C520.59 310.784 521.2 310.579 520.015 311.204Z" fill="#FFD037"/>
<path d="M497.141 304.933C497.141 304.933 494.201 308.635 498.495 314.228C502.789 319.822 506.34 324.541 504.907 328.028C504.907 328.028 498.421 317.643 493.145 317.495C487.869 317.347 491.335 311.171 497.141 304.933Z" fill="#88C322"/>
<path opacity="0.1" d="M497.141 304.933C496.883 305.289 496.681 305.68 496.541 306.093C491.39 311.921 488.647 317.361 493.596 317.495C498.208 317.624 503.736 325.568 505.065 327.569C505.021 327.731 504.968 327.891 504.907 328.047C504.907 328.047 498.421 317.662 493.145 317.514C487.869 317.366 491.335 311.171 497.141 304.933Z" fill="#9C69E2"/>
<path d="M491.672 309.647C491.672 310.951 491.826 312.007 492.014 312.007C492.202 312.007 492.351 310.951 492.351 309.647C492.351 308.343 492.163 308.959 491.974 308.959C491.786 308.959 491.672 308.343 491.672 309.647Z" fill="#FFD037"/>
<path d="M489.798 311.204C490.988 311.825 492.024 312.203 492.113 312.045C492.203 311.887 491.31 311.252 490.13 310.612C488.95 309.972 489.406 310.44 489.317 310.612C489.228 310.784 488.608 310.579 489.798 311.204Z" fill="#FFD037"/>
<path opacity="0.1" d="M504.901 356.358C521.88 356.358 535.644 354.324 535.644 351.816C535.644 349.307 521.88 347.273 504.901 347.273C487.922 347.273 474.158 349.307 474.158 351.816C474.158 354.324 487.922 356.358 504.901 356.358Z" fill="#88C322"/>
<path d="M520.729 323.031L520.581 324.187L520.377 325.821L520.293 326.504L520.085 328.138L519.995 328.821L519.787 330.45L517.437 349.031C517.224 350.688 514.412 351.983 511.02 351.983H498.793C495.396 351.983 492.589 350.688 492.381 349.031L490.021 330.45L489.818 328.821L489.733 328.138L489.52 326.504L489.436 325.821L489.227 324.187L489.084 323.031C488.965 322.076 490.487 321.302 492.406 321.302H517.427C519.326 321.302 520.853 322.09 520.729 323.031Z" fill="#65617D"/>
<path d="M520.581 324.187L520.372 325.821H489.431L489.228 324.187H520.581Z" fill="#9D9CB5"/>
<path d="M520.288 326.499L520.085 328.138H489.729L489.521 326.499H520.288Z" fill="#9D9CB5"/>
<path d="M519.99 328.816L519.787 330.45H490.021L489.812 328.816H519.99Z" fill="#9D9CB5"/>
</g>
<defs>
<linearGradient id="paint0_linear" x1="302.384" y1="321.966" x2="302.384" y2="64.8241" gradientUnits="userSpaceOnUse">
<stop stop-color="#808080" stop-opacity="0.25"/>
<stop offset="0.54" stop-color="#808080" stop-opacity="0.12"/>
<stop offset="1" stop-color="#808080" stop-opacity="0.1"/>
</linearGradient>
<linearGradient id="paint1_linear" x1="92616" y1="201813" x2="87665" y2="68026.9" gradientUnits="userSpaceOnUse">
<stop stop-color="#808080" stop-opacity="0.25"/>
<stop offset="0.54" stop-color="#808080" stop-opacity="0.12"/>
<stop offset="1" stop-color="#808080" stop-opacity="0.1"/>
</linearGradient>
<clipPath id="clip0">
<rect width="538" height="393" fill="white"/>
</clipPath>
</defs>
</svg>
